# Blender v2.79 (sub 0) OBJ File: 'grid.blend'
# www.blender.org
mtllib spicaploskve.mtl
o Cone_Cone.003
v 0.000000 1.161447 2.359915
v 0.000000 2.838553 3.000000
v 0.452609 1.161447 2.547391
v 0.640085 1.161447 3.000000
v 0.452609 1.161447 3.452609
v -0.000000 1.161447 3.640085
v -0.452609 1.161447 3.452609
v -0.640085 1.161447 3.000000
v -0.452609 1.161447 2.547391
vn 0.3609 0.3325 -0.8713
vn 0.8713 0.3325 -0.3609
vn 0.8713 0.3325 0.3609
vn 0.3609 0.3325 0.8713
vn -0.3609 0.3325 0.8713
vn -0.8713 0.3325 0.3609
vn -0.8713 0.3325 -0.3609
vn -0.3609 0.3325 -0.8713
vn 0.0000 -1.0000 -0.0000
usemtl Material.012
s off
f 1//1 2//1 3//1
f 3//2 2//2 4//2
f 4//3 2//3 5//3
f 5//4 2//4 6//4
f 6//5 2//5 7//5
f 7//6 2//6 8//6
f 8//7 2//7 9//7
f 9//8 2//8 1//8
f 1//9 3//9 4//9 5//9 6//9 7//9 8//9 9//9
